<?xml version="1.0" encoding="UTF-8"?>
<svg id="Layer_1" data-name="Layer 1" xmlns="http://www.w3.org/2000/svg" viewBox="0 0 1100 450">
  <defs>
    <style>
      .cls-1 {
        fill: #59d59d;
        stroke-width: 0px;
      }
    </style>
  </defs>
  <g>
    <path class="cls-1" d="m130.23,120.44c-.41,7.3-3.39,13.37-7.1,17.07-6.79,6.99-16.56,8.23-28.9,8.23-9.57,0-20.47-.72-29.21-9.67-7.61-7.82-9.46-17.79-9.46-26.74,0-6.89,1.13-18.21,9.77-26.85,8.64-8.64,19.95-10.08,29.52-10.08,7.82,0,16.66,1.03,23.66,5.45,8.85,5.55,10.7,12.96,11.11,18.21h-13.06c-.51-5.25-3.19-8.43-5.86-10.29-4.73-3.5-11.52-4.01-15.53-4.01-5.97,0-13.47.93-19.23,6.69-3.39,3.5-7.2,9.67-7.2,20.37,0,9.87,3.19,16.97,7.3,21.19,5.45,5.35,12.45,6.38,18.62,6.38,3.7,0,11.31-.31,16.15-3.81,2.78-2.06,5.97-6.07,6.27-12.14h13.17Z"/>
    <path class="cls-1" d="m212.72,135.36c-9.05,9.15-22.22,10.7-31.68,10.7s-22.63-1.65-31.68-10.7c-5.66-5.76-9.98-14.81-9.98-26.43s4.32-20.67,9.98-26.43c9.05-9.15,22.22-10.7,31.68-10.7s22.63,1.65,31.68,10.7c5.66,5.76,9.98,14.81,9.98,26.43s-4.22,20.78-9.98,26.43Zm-49.17-46.7c-5.25,5.04-7.61,13.17-7.61,20.37s2.26,15.33,7.61,20.37c2.88,2.67,8.23,6.17,17.59,6.17s14.71-3.39,17.59-6.17c5.25-5.04,7.61-13.17,7.61-20.37s-2.26-15.33-7.61-20.37c-2.88-2.67-8.23-6.17-17.59-6.17s-14.81,3.39-17.59,6.17Z"/>
    <path class="cls-1" d="m249.24,74.47v9.36c2.26-3.29,5.25-6.27,9.77-8.54,5.86-2.98,10.7-3.39,16.35-3.39,6.99,0,15.84.72,22.22,6.89,6.38,6.27,6.58,13.68,6.58,19.34v45.46h-15.74v-40.22c0-4.11.1-11.42-4.01-15.94-.82-.82-4.63-4.63-12.96-4.63-6.99,0-12.03,2.67-15.02,5.76-5.97,5.97-6.58,15.02-6.58,21.19v33.84h-15.74v-69.12h15.12Z"/>
    <path class="cls-1" d="m315.69,74.47h14.91v-20.57h15.74v20.57h16.25v10.59h-16.35v39.09c0,2.16.1,5.97,1.85,7.92,1.44,1.65,4.63,2.16,6.79,2.16s5.45-.51,7.82-1.34v10.59c-4.42,1.65-8.23,2.16-12.55,2.16-3.81,0-11.31-.41-15.43-4.32-3.91-3.81-4.22-10.08-4.22-13.99v-42.17h-14.81v-10.7h0Z"/>
    <path class="cls-1" d="m450.95,122.5c-1.13,10.59-7.71,18-16.35,21.09-5.55,2.06-12.45,2.57-22.01,2.57-10.8,0-23.25-.93-31.89-9.67-3.39-3.39-9.36-11.31-9.36-26.54,0-13.89,4.73-22.73,9.87-27.87,8.74-8.85,20.67-10.18,30.55-10.18s22.83,1.54,31.37,10.29c8.02,8.33,8.95,18.93,8.95,27.98v2.06h-64.29v.82c0,4.53.72,11.31,5.55,16.46,5.25,5.55,12.55,5.97,19.03,5.97,5.45,0,10.9-.31,15.43-2.67,5.25-2.98,6.48-7.2,6.89-10.29h16.25Zm-15.43-19.44c-.1-6.38-2.88-12.34-6.48-15.53-5.55-4.73-14.3-5.04-17.28-5.04-4.32,0-11.52.72-16.87,5.45-3.39,2.98-6.48,8.33-6.89,15.12h47.52Z"/>
    <path class="cls-1" d="m482.73,74.47v9.36c2.26-3.29,5.25-6.27,9.77-8.54,5.86-2.98,10.7-3.39,16.35-3.39,6.99,0,15.84.72,22.22,6.89,6.38,6.27,6.58,13.68,6.58,19.34v45.46h-15.74v-40.22c0-4.11.1-11.42-4.01-15.94-.82-.82-4.63-4.63-12.96-4.63-6.99,0-12.03,2.67-15.02,5.76-5.97,5.97-6.58,15.02-6.58,21.19v33.84h-15.74v-69.12h15.12Z"/>
    <path class="cls-1" d="m549.18,74.47h14.91v-20.57h15.74v20.57h16.25v10.59h-16.25v39.09c0,2.16.1,5.97,1.85,7.92,1.44,1.65,4.63,2.16,6.79,2.16s5.45-.51,7.82-1.34v10.59c-4.42,1.65-8.23,2.16-12.55,2.16-3.81,0-11.31-.41-15.43-4.32-3.91-3.81-4.22-10.08-4.22-13.99v-42.17h-14.91v-10.7h0Z"/>
    <path class="cls-1" d="m623.54,74.47v9.98c2.16-3.29,5.55-6.79,9.36-8.95,5.04-2.88,10.29-3.5,15.53-3.5,4.22,0,9.98.41,15.02,3.39,2.98,1.75,6.48,4.94,8.43,10.18,2.06-3.81,5.04-7.1,9.98-9.77,5.66-2.98,11.31-3.81,16.35-3.81,4.42,0,13.68.31,20.26,6.27,6.89,6.27,7.61,14.3,7.61,22.01v43.41h-15.63v-42.69c0-3.7-.1-10.08-4.22-14.19-2.88-2.88-7.71-4.11-11.73-4.11-4.63,0-9.57,1.65-13.27,5.14-2.88,2.88-5.97,7.92-5.97,15.94v39.7h-15.63v-42.28c0-4.22-.41-10.7-5.04-14.81-2.57-2.26-6.48-3.7-10.59-3.7-5.45,0-10.59,2.26-14.09,6.17-4.73,5.04-5.55,11.01-5.55,16.15v38.47h-15.74v-69.12l14.91.1h0Z"/>
    <path class="cls-1" d="m742.66,95.14c-.1-7.3,2.98-12.24,5.97-15.22,6.99-7.1,18.62-8.13,29.11-8.13,8.33,0,21.81,1.34,28.49,8.43,5.97,6.17,5.25,13.37,5.25,18.51v26.64c0,3.5.41,5.55,1.34,6.69.41.51,1.44,1.54,3.5,1.54,1.13,0,1.85-.1,2.47-.41v10.18c-2.57.51-5.04.82-7.82.82-2.57,0-6.89-.1-9.77-2.26-2.06-1.54-3.81-4.53-4.22-7.92-2.67,3.7-6.79,7.2-11.31,8.95-3.5,1.34-8.64,2.26-17.07,2.26-5.45,0-13.68-.31-19.75-4.53-4.11-2.88-8.13-8.13-8.13-16.15,0-6.27,2.57-10.49,5.04-12.96,1.65-1.75,5.55-4.94,12.96-6.58,4.32-.93,9.15-1.23,14.91-1.75l7.71-.72c6.38-.51,10.29-1.23,12.45-3.29,1.23-1.13,2.16-2.88,2.16-5.35,0-2.98-1.23-6.38-5.55-8.85-4.01-2.16-9.57-2.57-12.75-2.57-4.42,0-10.18.51-13.99,2.88-4.63,2.67-5.45,6.69-5.45,9.67l-15.53.1h0Zm53.08,13.99c-3.5,3.29-6.99,3.39-14.19,3.91l-7.41.51c-6.38.41-9.77,1.13-12.34,2.57-2.16,1.34-4.42,3.81-4.42,7.92,0,3.39,1.65,6.17,3.81,7.71,3.09,2.47,7.41,2.67,10.7,2.67,4.73,0,11.11-.82,15.43-3.81,8.02-5.55,8.54-17.18,8.54-20.37l-.1-1.13h0Z"/>
    <path class="cls-1" d="m885.01,74.47h18.51l-32.5,27.26,34.46,41.86h-18.1l-26.54-33.43-12.34,10.18v23.25h-15.74V48.34h15.74v57.29l36.52-31.17Z"/>
    <path class="cls-1" d="m987.26,122.5c-1.13,10.59-7.71,18-16.35,21.09-5.55,2.06-12.45,2.57-22.01,2.57-10.8,0-23.25-.93-31.89-9.67-3.39-3.39-9.36-11.31-9.36-26.54,0-13.89,4.73-22.73,9.87-27.87,8.74-8.85,20.67-10.18,30.55-10.18s22.83,1.54,31.37,10.29c8.02,8.33,8.95,18.93,8.95,27.98v2.06h-64.29v.82c0,4.53.72,11.31,5.55,16.46,5.25,5.55,12.55,5.97,19.03,5.97,5.45,0,10.9-.31,15.43-2.67,5.25-2.98,6.48-7.2,6.89-10.29h16.25Zm-15.43-19.44c-.1-6.38-2.88-12.34-6.48-15.53-5.55-4.73-14.3-5.04-17.28-5.04-4.32,0-11.52.72-16.87,5.45-3.39,2.98-6.48,8.33-6.89,15.12h47.52Z"/>
    <path class="cls-1" d="m1050,84.96h-1.23c-4.73,0-15.02-.31-22.01,6.69-6.07,5.97-7.2,15.12-7.2,23.76v28.18h-15.74v-69.12h15.33v12.65h.31c1.34-2.67,4.22-7.51,10.29-10.7,6.27-3.39,12.96-3.39,17.69-3.39h2.57v11.93h0Z"/>
  </g>
  <polygon class="cls-1" points="79.21 211.17 79.21 245.42 206.14 245.42 206.14 338.09 50 338.09 50 308.88 176.83 308.88 176.83 274.63 50 274.63 50 181.95 206.14 181.95 206.14 211.17 79.21 211.17"/>
  <path class="cls-1" d="m229.7,181.95v219.71h29.31v-63.46h126.93v-156.24h-156.24Zm126.93,126.93h-97.61v-97.72h97.61v97.72Z"/>
  <path class="cls-1" d="m667.98,308.88v-126.93h-235.86v126.93h-22.73v29.21h281.11v-29.21h-22.53Zm-29.31,0h-177.12v-97.72h177.12v97.72Z"/>
  <polygon class="cls-1" points="743.38 211.17 743.38 308.88 870.3 308.88 870.3 338.09 714.06 338.09 714.06 181.95 870.3 181.95 870.3 211.17 743.38 211.17"/>
  <polygon class="cls-1" points="923.07 211.17 923.07 245.42 1050 245.42 1050 274.63 923.07 274.63 923.07 308.88 1050 308.88 1050 338.09 893.86 338.09 893.86 181.95 1050 181.95 1050 211.17 923.07 211.17"/>
</svg>